<svg id="Layer_1" data-name="Layer 1" xmlns="http://www.w3.org/2000/svg" xmlns:xlink="http://www.w3.org/1999/xlink" viewBox="0 0 1963 690"><defs><style>.cls-1,.cls-2,.cls-3,.cls-4,.cls-5{fill:none;}.cls-1,.cls-2,.cls-3{stroke-linecap:round;stroke-linejoin:round;}.cls-1,.cls-2,.cls-3,.cls-6{stroke-width:3px;}.cls-1{stroke-dasharray:50 20 560 200 200 100;stroke:url(#linear-gradient);}.cls-2{stroke-dasharray:200 100 100 50 300 200;stroke:url(#linear-gradient-2);}.cls-3{stroke-dasharray:600 100 200 50;stroke:url(#linear-gradient-3);}.cls-4,.cls-5{stroke-width:2px;}.cls-4{stroke:url(#linear-gradient-4);}.cls-5{stroke:url(#linear-gradient-5);}.cls-6{fill:#fff;stroke:#4698cb;}</style><linearGradient id="linear-gradient" x1="22.48878" y1="885.68506" x2="22.48878" y2="884.68506" gradientTransform="matrix(1959.99988, 0, 0, -616, -43095.99731, 545584)" gradientUnits="userSpaceOnUse"><stop offset="0" stop-color="#57eeff"/><stop offset="1" stop-color="#4d6cd3"/></linearGradient><linearGradient id="linear-gradient-2" x1="22.48878" y1="885.68506" x2="22.48878" y2="884.68506" gradientTransform="matrix(1959.99988, 0, 0, -616, -43095.99731, 545620)" xlink:href="#linear-gradient"/><linearGradient id="linear-gradient-3" x1="22.48878" y1="885.68506" x2="22.48878" y2="884.68506" gradientTransform="matrix(1959.99988, 0, 0, -616, -43095.99731, 545655)" xlink:href="#linear-gradient"/><linearGradient id="linear-gradient-4" x1="22.05818" y1="885.40156" x2="22.05818" y2="884.40156" gradientTransform="matrix(535.8739, 0, 0, -324.17578, -11354.09971, 287281.56641)" xlink:href="#linear-gradient"/><linearGradient id="linear-gradient-5" x1="22.44199" y1="885.14366" x2="22.44199" y2="884.14366" gradientTransform="matrix(637, 0, 0, -226.54507, -13043, 200887.93597)" xlink:href="#linear-gradient"/></defs><title>stream-1-gradient</title><g id="Symbols"><g id="Stream-1_w_circles" data-name="Stream-1 w circles"><g id="Stream-1_gradient" data-name="Stream-1 gradient"><path id="Stroke-25" class="cls-1" d="M2,2C2,313.86041,1962.97815,328.5271,1961.99963,618" transform="translate(-0.5 -0.5)"/><path id="Stroke-27" class="cls-2" d="M2,38C2,349.86041,1962.97815,364.5271,1961.99963,654" transform="translate(-0.5 -0.5)"/><path id="Stroke-29" class="cls-3" d="M2,73C2,384.86041,1962.97815,399.5271,1961.99963,689" transform="translate(-0.5 -0.5)"/></g><g id="Data-Access"><path id="Path-2" class="cls-4" d="M415,255.82422C384.57031,395.69922,731.72656,553.38281,949,580" transform="translate(-0.5 -0.5)"/><path id="Path-2-2" data-name="Path-2" class="cls-5" d="M1142,363c-61,135-150,174-193,216m637-73c-132,93-444,92-636,74" transform="translate(-0.5 -0.5)"/><circle id="Oval-2" class="cls-6" cx="948.5" cy="578.5" r="21"/><circle id="Oval-2-2" data-name="Oval-2" class="cls-6" cx="414" cy="256" r="13.5"/><circle id="Oval-2-Copy" class="cls-6" cx="1584" cy="504" r="13.5"/><circle id="Oval-2-Copy-2" class="cls-6" cx="1146" cy="349" r="13.5"/></g></g></g></svg>